# xmcd
#
# Track frame offsets: 
#        150
#        15967
#        31610
#        47652
#        59195
#        71987
#        88292
#        105522
#        120355
#        136255
#        150132
#        164127
#        180525
#        195995
#        212865
#        228882
#
# Disc length: 3300 seconds
#
# Revision: 1
# Processed by: cddbd v1.5.2PL0 Copyright (c) Steve Scherf et al.
# Submitted via: ExactAudioCopy v1.0b6
#
DISCID=ce0ce210
DTITLE=Raça Negra - Roda De Samba Com Raça Negra (2006)
DYEAR=2006
DGENRE=Other
TTITLE0=Cheia De Manias
TTITLE1=Cigana
TTITLE2=Jeito Felino
TTITLE3=Te Quero Comigo
TTITLE4=Me Leva Junto Com Você
TTITLE5=Doce Paixão
TTITLE6=Estou Mal
TTITLE7=Oi (Estou Te Amando)
TTITLE8=Que Pena
TTITLE9=Perdi Você
TTITLE10=Desculpe, Mas Eu Vou Chorar
TTITLE11=Preciso Desse Amor
TTITLE12=O Sonho Terminou
TTITLE13=Ciúme De Você
TTITLE14=Quando Te Encontrei
TTITLE15=Preciso Dar Um Tempo
EXTD=ID3G:  80 YEAR: 2006
EXTT0=
EXTT1=
EXTT2=
EXTT3=
EXTT4=
EXTT5=
EXTT6=
EXTT7=
EXTT8=
EXTT9=
EXTT10=
EXTT11=
EXTT12=
EXTT13=
EXTT14=
EXTT15=
PLAYORDER=
